<?xml version="1.0" encoding="UTF-8"?><svg id="Lager_2" xmlns="http://www.w3.org/2000/svg" viewBox="0 0 962 173.12"><defs><style>.cls-1{fill:#283d97;}</style></defs><g id="Lager_1-2"><path class="cls-1" d="M29.76,113.21L0,135.43c13.6,25,36.94,37.37,70.03,37.37,1.54,0,3.33,0,5.13-.25v-38.38c-3.08.51-5.64.51-7.7.51-14.37,0-26.93-7.07-37.71-21.46Z"/><path class="cls-1" d="M82.34,42.5c4.1,3.03,8.47,7.32,12.83,13.38l29.5-22.22C113.12,11.44,93.63.08,65.93.08c-1.28,0-2.57.25-4.1.25v38.13c1.54,0,2.82-.25,4.1-.25,6.67,0,12.06,1.52,16.42,4.29Z"/><path class="cls-1" d="M86.19,70.53l-19.5-8.08c-5.64-2.27-9.49-4.55-11.54-7.07-2.05-2.27-3.08-6.06-3.08-11.62V1.34c-13.6,2.53-24.37,7.83-32.58,16.41-8.21,8.59-12.06,19.19-12.06,31.56,0,21.21,14.11,38.13,42.84,50.25l17.44,7.57c6.67,3.03,11.03,5.56,13.6,8.08,2.31,2.53,3.59,6.57,3.59,12.37v43.43c13.34-2.53,24.11-8.33,32.32-17.17,8.21-8.84,12.31-19.95,12.31-33.08,0-11.62-3.59-21.46-10.77-29.29-7.18-7.83-17.96-14.9-32.58-20.96Z"/><path class="cls-1" d="M588.73,42.5c4.1,3.03,8.47,7.32,12.83,13.38l29.5-22.22C619.52,11.44,600.02.08,572.32.08c-1.28,0-2.57.25-4.1.25v38.13c1.54,0,2.82-.25,4.1-.25,6.67,0,12.06,1.52,16.42,4.29Z"/><path class="cls-1" d="M592.58,70.53l-19.5-8.08c-5.64-2.27-9.49-4.55-11.54-7.07-2.05-2.27-3.08-6.06-3.08-11.62V1.34c-13.6,2.53-24.37,7.83-32.58,16.41-8.21,8.59-12.06,19.19-12.06,31.56,0,21.21,14.11,38.13,42.84,50.25l17.44,7.57c6.67,3.03,11.03,5.56,13.6,8.08,2.31,2.53,3.59,6.57,3.59,12.37v43.43c13.34-2.53,24.11-8.33,32.32-17.17,8.21-8.84,12.31-19.95,12.31-33.08,0-11.62-3.59-21.46-10.77-29.29-7.18-7.83-17.96-14.9-32.58-20.96Z"/><path class="cls-1" d="M536.15,113.21l-29.76,22.22c13.6,25,36.94,37.37,70.03,37.37,1.54,0,3.34,0,5.13-.25v-38.38c-3.08.51-5.64.51-7.7.51-14.36,0-26.93-7.07-37.71-21.46Z"/><path class="cls-1" d="M230.41,130.96c-22.24,0-39.16-16.57-41.18-39.61h-44.84c2.15,47.74,37.26,81.77,86.02,81.77s83.88-33.83,86.02-81.77h-45.05c-1.96,23.23-18.51,39.61-40.96,39.61Z"/><path class="cls-1" d="M230.41,42.16c22.4,0,38.92,16.29,40.95,39.61h45.06C314.18,33.73,279.1,0,230.41,0s-83.76,33.94-86.01,81.77h44.84c2.1-23.13,18.99-39.61,41.16-39.61Z"/><polygon class="cls-1" points="728.08 55.58 743.14 97.47 787.98 97.47 750.46 4 705.94 4 669.22 97.47 713.41 97.47 728.08 55.58"/><polygon class="cls-1" points="665.47 107.04 641.17 168.87 689.93 168.87 699.11 142.26 757.53 142.26 766.47 168.87 816.64 168.87 791.82 107.04 665.47 107.04"/><path class="cls-1" d="M936.8,81.96c12.48-7.77,20.73-20.96,20.73-35.57,0-24.5-21.43-42.16-50.64-42.16h-22.77v35.33h15c9.42,0,15.31,5.65,15.31,14.37s-5.89,14.37-15.31,14.37h-15v33.45h16.65c9.89,0,16.25,6.12,16.25,14.84s-6.36,15.07-16.25,15.07h-16.65v37.45h24.42c30.38,0,53.47-20.26,53.47-47.11,0-17.9-9.66-32.74-25.2-40.04Z"/><rect class="cls-1" x="832.46" y="4.24" width="42.09" height="164.87"/><polygon class="cls-1" points="340.25 168.87 384.29 168.87 384.29 94.01 340.25 33.82 340.25 168.87"/><polygon class="cls-1" points="443.41 90.68 380.05 4 340.25 4 340.25 17.62 450.93 168.87 487.46 168.87 487.46 4 443.41 4 443.41 90.68"/></g></svg>